{
    "asset" : {
        "generator" : "Khronos glTF Blender I/O v1.2.75",
        "version" : "2.0"
    },
    "scene" : 0,
    "scenes" : [
        {
            "name" : "Scene",
            "nodes" : [
                0,
                1
            ]
        }
    ],
    "nodes" : [
        {
            "mesh" : 0,
            "name" : "Laptop",
            "rotation" : [
                -0.02016564831137657,
                -0.5657125115394592,
                -0.02914743684232235,
                0.8238404393196106
            ],
            "scale" : [
                0.07878133654594421,
                0.013366333208978176,
                -0.07878106087446213
            ],
            "translation" : [
                0.39013928174972534,
                0.16905909776687622,
                1.417763590812683
            ]
        },
        {
            "mesh" : 1,
            "name" : "Phone",
            "rotation" : [
                -0.49975138902664185,
                -0.3950076103210449,
                0.2590002715587616,
                -0.7260415554046631
            ],
            "scale" : [
                8.066329002380371,
                8.066329002380371,
                8.066327095031738
            ],
            "translation" : [
                -0.7802212238311768,
                0.7498872876167297,
                -1.0180608034133911
            ]
        }
    ],
    "animations" : [
        {
            "channels" : [
                {
                    "sampler" : 0,
                    "target" : {
                        "node" : 0,
                        "path" : "translation"
                    }
                },
                {
                    "sampler" : 1,
                    "target" : {
                        "node" : 0,
                        "path" : "rotation"
                    }
                }
            ],
            "name" : "LaptopAction",
            "samplers" : [
                {
                    "input" : 16,
                    "interpolation" : "LINEAR",
                    "output" : 17
                },
                {
                    "input" : 16,
                    "interpolation" : "LINEAR",
                    "output" : 18
                }
            ]
        },
        {
            "channels" : [
                {
                    "sampler" : 0,
                    "target" : {
                        "node" : 1,
                        "path" : "translation"
                    }
                },
                {
                    "sampler" : 1,
                    "target" : {
                        "node" : 1,
                        "path" : "rotation"
                    }
                }
            ],
            "name" : "PhoneAction",
            "samplers" : [
                {
                    "input" : 16,
                    "interpolation" : "LINEAR",
                    "output" : 19
                },
                {
                    "input" : 16,
                    "interpolation" : "LINEAR",
                    "output" : 20
                }
            ]
        }
    ],
    "materials" : [
        {
            "doubleSided" : true,
            "emissiveFactor" : [
                0,
                0,
                0
            ],
            "name" : "Laptop Base",
            "pbrMetallicRoughness" : {
                "baseColorFactor" : [
                    0,
                    0,
                    0,
                    1
                ],
                "metallicFactor" : 0,
                "roughnessFactor" : 1
            }
        },
        {
            "doubleSided" : true,
            "emissiveFactor" : [
                1,
                1,
                1
            ],
            "name" : "Laptop Scene",
            "pbrMetallicRoughness" : {
                "baseColorFactor" : [
                    0.800000011920929,
                    0.800000011920929,
                    0.800000011920929,
                    1
                ],
                "metallicFactor" : 0,
                "roughnessFactor" : 0.5
            }
        },
        {
            "doubleSided" : true,
            "emissiveFactor" : [
                0,
                0,
                0
            ],
            "name" : "Phone Base",
            "pbrMetallicRoughness" : {
                "baseColorFactor" : [
                    0,
                    0,
                    0,
                    1
                ],
                "metallicFactor" : 0,
                "roughnessFactor" : 1
            }
        },
        {
            "doubleSided" : true,
            "emissiveFactor" : [
                1,
                1,
                1
            ],
            "name" : "Phone Scene",
            "pbrMetallicRoughness" : {
                "baseColorFactor" : [
                    0.800000011920929,
                    0.800000011920929,
                    0.800000011920929,
                    1
                ],
                "metallicFactor" : 0,
                "roughnessFactor" : 0.5
            }
        }
    ],
    "meshes" : [
        {
            "name" : "Laptop",
            "primitives" : [
                {
                    "attributes" : {
                        "POSITION" : 0,
                        "NORMAL" : 1,
                        "TEXCOORD_0" : 2
                    },
                    "indices" : 3,
                    "material" : 0
                },
                {
                    "attributes" : {
                        "POSITION" : 4,
                        "NORMAL" : 5,
                        "TEXCOORD_0" : 6
                    },
                    "indices" : 7,
                    "material" : 1
                }
            ]
        },
        {
            "name" : "Phone",
            "primitives" : [
                {
                    "attributes" : {
                        "POSITION" : 8,
                        "NORMAL" : 9,
                        "TEXCOORD_0" : 10
                    },
                    "indices" : 11,
                    "material" : 2
                },
                {
                    "attributes" : {
                        "POSITION" : 12,
                        "NORMAL" : 13,
                        "TEXCOORD_0" : 14
                    },
                    "indices" : 15,
                    "material" : 3
                }
            ]
        }
    ],
    "accessors" : [
        {
            "bufferView" : 0,
            "componentType" : 5126,
            "count" : 10599,
            "max" : [
                6.969078063964844,
                120.10565185546875,
                13.380495071411133
            ],
            "min" : [
                -23.929901123046875,
                -4.915176868438721,
                -13.473617553710938
            ],
            "type" : "VEC3"
        },
        {
            "bufferView" : 1,
            "componentType" : 5126,
            "count" : 10599,
            "type" : "VEC3"
        },
        {
            "bufferView" : 2,
            "componentType" : 5126,
            "count" : 10599,
            "type" : "VEC2"
        },
        {
            "bufferView" : 3,
            "componentType" : 5123,
            "count" : 38847,
            "type" : "SCALAR"
        },
        {
            "bufferView" : 4,
            "componentType" : 5126,
            "count" : 4,
            "max" : [
                6.145536422729492,
                114.07304382324219,
                -8.624831199645996
            ],
            "min" : [
                -23.2684326171875,
                8.72366714477539,
                -12.836030960083008
            ],
            "type" : "VEC3"
        },
        {
            "bufferView" : 5,
            "componentType" : 5126,
            "count" : 4,
            "type" : "VEC3"
        },
        {
            "bufferView" : 6,
            "componentType" : 5126,
            "count" : 4,
            "type" : "VEC2"
        },
        {
            "bufferView" : 7,
            "componentType" : 5123,
            "count" : 6,
            "type" : "SCALAR"
        },
        {
            "bufferView" : 8,
            "componentType" : 5126,
            "count" : 12260,
            "max" : [
                0.036478426307439804,
                0.0037566586397588253,
                0.073077492415905
            ],
            "min" : [
                -0.03650718554854393,
                -0.003718429943546653,
                -0.07299607247114182
            ],
            "type" : "VEC3"
        },
        {
            "bufferView" : 9,
            "componentType" : 5126,
            "count" : 12260,
            "type" : "VEC3"
        },
        {
            "bufferView" : 10,
            "componentType" : 5126,
            "count" : 12260,
            "type" : "VEC2"
        },
        {
            "bufferView" : 11,
            "componentType" : 5123,
            "count" : 55062,
            "type" : "SCALAR"
        },
        {
            "bufferView" : 12,
            "componentType" : 5126,
            "count" : 82,
            "max" : [
                0.032512009143829346,
                0.003718429710716009,
                0.06980127096176147
            ],
            "min" : [
                -0.032512009143829346,
                0.0037184294778853655,
                -0.06980127096176147
            ],
            "type" : "VEC3"
        },
        {
            "bufferView" : 13,
            "componentType" : 5126,
            "count" : 82,
            "type" : "VEC3"
        },
        {
            "bufferView" : 14,
            "componentType" : 5126,
            "count" : 82,
            "type" : "VEC2"
        },
        {
            "bufferView" : 15,
            "componentType" : 5123,
            "count" : 324,
            "type" : "SCALAR"
        },
        {
            "bufferView" : 16,
            "componentType" : 5126,
            "count" : 241,
            "max" : [
                8
            ],
            "min" : [
                0
            ],
            "type" : "SCALAR"
        },
        {
            "bufferView" : 17,
            "componentType" : 5126,
            "count" : 241,
            "type" : "VEC3"
        },
        {
            "bufferView" : 18,
            "componentType" : 5126,
            "count" : 241,
            "type" : "VEC4"
        },
        {
            "bufferView" : 19,
            "componentType" : 5126,
            "count" : 241,
            "type" : "VEC3"
        },
        {
            "bufferView" : 20,
            "componentType" : 5126,
            "count" : 241,
            "type" : "VEC4"
        }
    ],
    "bufferViews" : [
        {
            "buffer" : 0,
            "byteLength" : 127188,
            "byteOffset" : 0
        },
        {
            "buffer" : 0,
            "byteLength" : 127188,
            "byteOffset" : 127188
        },
        {
            "buffer" : 0,
            "byteLength" : 84792,
            "byteOffset" : 254376
        },
        {
            "buffer" : 0,
            "byteLength" : 77694,
            "byteOffset" : 339168
        },
        {
            "buffer" : 0,
            "byteLength" : 48,
            "byteOffset" : 416864
        },
        {
            "buffer" : 0,
            "byteLength" : 48,
            "byteOffset" : 416912
        },
        {
            "buffer" : 0,
            "byteLength" : 32,
            "byteOffset" : 416960
        },
        {
            "buffer" : 0,
            "byteLength" : 12,
            "byteOffset" : 416992
        },
        {
            "buffer" : 0,
            "byteLength" : 147120,
            "byteOffset" : 417004
        },
        {
            "buffer" : 0,
            "byteLength" : 147120,
            "byteOffset" : 564124
        },
        {
            "buffer" : 0,
            "byteLength" : 98080,
            "byteOffset" : 711244
        },
        {
            "buffer" : 0,
            "byteLength" : 110124,
            "byteOffset" : 809324
        },
        {
            "buffer" : 0,
            "byteLength" : 984,
            "byteOffset" : 919448
        },
        {
            "buffer" : 0,
            "byteLength" : 984,
            "byteOffset" : 920432
        },
        {
            "buffer" : 0,
            "byteLength" : 656,
            "byteOffset" : 921416
        },
        {
            "buffer" : 0,
            "byteLength" : 648,
            "byteOffset" : 922072
        },
        {
            "buffer" : 0,
            "byteLength" : 964,
            "byteOffset" : 922720
        },
        {
            "buffer" : 0,
            "byteLength" : 2892,
            "byteOffset" : 923684
        },
        {
            "buffer" : 0,
            "byteLength" : 3856,
            "byteOffset" : 926576
        },
        {
            "buffer" : 0,
            "byteLength" : 2892,
            "byteOffset" : 930432
        },
        {
            "buffer" : 0,
            "byteLength" : 3856,
            "byteOffset" : 933324
        }
    ],
    "buffers" : [
        {
            "byteLength" : 937180,
            "uri" : "animation.bin"
        }
    ]
}
