{
    "asset" : {
        "generator" : "Khronos glTF Blender I/O v1.2.75",
        "version" : "2.0"
    },
    "scene" : 0,
    "scenes" : [
        {
            "name" : "Scene",
            "nodes" : [
                0
            ]
        }
    ],
    "nodes" : [
        {
            "mesh" : 0,
            "name" : "V_Neck",
            "rotation" : [
                0.7071068286895752,
                0,
                0,
                0.7071067094802856
            ]
        }
    ],
    "materials" : [
        {
            "doubleSided" : true,
            "emissiveFactor" : [
                0,
                0,
                0
            ],
            "name" : "UV_V_NECK",
            "normalTexture" : {
                "index" : 0,
                "texCoord" : 0
            },
            "pbrMetallicRoughness" : {
                "baseColorTexture" : {
                    "index" : 1,
                    "texCoord" : 0
                },
                "metallicFactor" : 0,
                "metallicRoughnessTexture" : {
                    "index" : 2,
                    "texCoord" : 0
                }
            }
        },
        {
            "doubleSided" : true,
            "emissiveFactor" : [
                0,
                0,
                0
            ],
            "name" : "UV_PANTS_V_NECCK",
            "normalTexture" : {
                "index" : 3,
                "texCoord" : 0
            },
            "pbrMetallicRoughness" : {
                "baseColorTexture" : {
                    "index" : 4,
                    "texCoord" : 0
                },
                "metallicFactor" : 0,
                "metallicRoughnessTexture" : {
                    "index" : 5,
                    "texCoord" : 0
                }
            }
        }
    ],
    "meshes" : [
        {
            "name" : "Low_polly_V_neck_2.001",
            "primitives" : [
                {
                    "attributes" : {
                        "POSITION" : 0,
                        "NORMAL" : 1,
                        "TEXCOORD_0" : 2,
                        "COLOR_0" : 3
                    },
                    "indices" : 4,
                    "material" : 0
                },
                {
                    "attributes" : {
                        "POSITION" : 5,
                        "NORMAL" : 6,
                        "TEXCOORD_0" : 7,
                        "COLOR_0" : 8
                    },
                    "indices" : 9,
                    "material" : 1
                }
            ]
        }
    ],
    "textures" : [
        {
            "source" : 0
        },
        {
            "source" : 1
        },
        {
            "source" : 2
        },
        {
            "source" : 3
        },
        {
            "source" : 4
        },
        {
            "source" : 5
        }
    ],
    "images" : [
        {
            "mimeType" : "image/png",
            "name" : "UV_NORMAL_MAP_V_NECK",
            "uri" : "UV_NORMAL_MAP_V_NECK.png"
        },
        {
            "mimeType" : "image/png",
            "name" : "UV_DIFFUSE_V_NECK",
            "uri" : "UV_DIFFUSE_V_NECK.png"
        },
        {
            "mimeType" : "image/png",
            "name" : "UV_ROUGHNESS_V_NECK",
            "uri" : "UV_ROUGHNESS_V_NECK.png"
        },
        {
            "mimeType" : "image/png",
            "name" : "UV_NORMAL_MAP_PANTS_V_NECK",
            "uri" : "UV_NORMAL_MAP_PANTS_V_NECK.png"
        },
        {
            "mimeType" : "image/png",
            "name" : "UV_DIFFUSE_PANTS",
            "uri" : "UV_DIFFUSE_PANTS.png"
        },
        {
            "mimeType" : "image/png",
            "name" : "UV_ROUGHNESS_PANTS_V_NECK",
            "uri" : "UV_ROUGHNESS_PANTS_V_NECK.png"
        }
    ],
    "accessors" : [
        {
            "bufferView" : 0,
            "componentType" : 5126,
            "count" : 705,
            "max" : [
                0.6917976140975952,
                0.5360614657402039,
                -2.2964677810668945
            ],
            "min" : [
                -0.7216781973838806,
                -0.5290944576263428,
                -4.475893020629883
            ],
            "type" : "VEC3"
        },
        {
            "bufferView" : 1,
            "componentType" : 5126,
            "count" : 705,
            "type" : "VEC3"
        },
        {
            "bufferView" : 2,
            "componentType" : 5126,
            "count" : 705,
            "type" : "VEC2"
        },
        {
            "bufferView" : 3,
            "componentType" : 5126,
            "count" : 705,
            "type" : "VEC4"
        },
        {
            "bufferView" : 4,
            "componentType" : 5123,
            "count" : 3210,
            "type" : "SCALAR"
        },
        {
            "bufferView" : 5,
            "componentType" : 5126,
            "count" : 1122,
            "max" : [
                0.8216671943664551,
                0.5324884653091431,
                0.011863470077514648
            ],
            "min" : [
                -0.8152766227722168,
                -0.5023791193962097,
                -2.5777907371520996
            ],
            "type" : "VEC3"
        },
        {
            "bufferView" : 6,
            "componentType" : 5126,
            "count" : 1122,
            "type" : "VEC3"
        },
        {
            "bufferView" : 7,
            "componentType" : 5126,
            "count" : 1122,
            "type" : "VEC2"
        },
        {
            "bufferView" : 8,
            "componentType" : 5126,
            "count" : 1122,
            "type" : "VEC4"
        },
        {
            "bufferView" : 9,
            "componentType" : 5123,
            "count" : 5706,
            "type" : "SCALAR"
        }
    ],
    "bufferViews" : [
        {
            "buffer" : 0,
            "byteLength" : 8460,
            "byteOffset" : 0
        },
        {
            "buffer" : 0,
            "byteLength" : 8460,
            "byteOffset" : 8460
        },
        {
            "buffer" : 0,
            "byteLength" : 5640,
            "byteOffset" : 16920
        },
        {
            "buffer" : 0,
            "byteLength" : 11280,
            "byteOffset" : 22560
        },
        {
            "buffer" : 0,
            "byteLength" : 6420,
            "byteOffset" : 33840
        },
        {
            "buffer" : 0,
            "byteLength" : 13464,
            "byteOffset" : 40260
        },
        {
            "buffer" : 0,
            "byteLength" : 13464,
            "byteOffset" : 53724
        },
        {
            "buffer" : 0,
            "byteLength" : 8976,
            "byteOffset" : 67188
        },
        {
            "buffer" : 0,
            "byteLength" : 17952,
            "byteOffset" : 76164
        },
        {
            "buffer" : 0,
            "byteLength" : 11412,
            "byteOffset" : 94116
        }
    ],
    "buffers" : [
        {
            "byteLength" : 105528,
            "uri" : "Basic_Jersey_1.bin"
        }
    ]
}
