{
    "asset" : {
        "generator" : "Khronos glTF Blender I/O v1.2.75",
        "version" : "2.0"
    },
    "scene" : 0,
    "scenes" : [
        {
            "name" : "Scene",
            "nodes" : [
                0
            ]
        }
    ],
    "nodes" : [
        {
            "mesh" : 0,
            "name" : "Normal_Neck",
            "rotation" : [
                0.7071068286895752,
                0,
                0,
                0.7071067094802856
            ]
        }
    ],
    "materials" : [
        {
            "doubleSided" : true,
            "emissiveFactor" : [
                0,
                0,
                0
            ],
            "name" : "Normal_main_color",
            "normalTexture" : {
                "index" : 0,
                "texCoord" : 0
            },
            "pbrMetallicRoughness" : {
                "baseColorTexture" : {
                    "index" : 1,
                    "texCoord" : 0
                },
                "metallicFactor" : 0,
                "metallicRoughnessTexture" : {
                    "index" : 2,
                    "texCoord" : 0
                }
            }
        },
        {
            "doubleSided" : true,
            "emissiveFactor" : [
                0,
                0,
                0
            ],
            "name" : "Normal_Aksen",
            "normalTexture" : {
                "index" : 3,
                "texCoord" : 0
            },
            "pbrMetallicRoughness" : {
                "baseColorTexture" : {
                    "index" : 4,
                    "texCoord" : 0
                },
                "metallicFactor" : 0,
                "metallicRoughnessTexture" : {
                    "index" : 5,
                    "texCoord" : 0
                }
            }
        }
    ],
    "meshes" : [
        {
            "name" : "Low_polly_V_neck_2.002",
            "primitives" : [
                {
                    "attributes" : {
                        "POSITION" : 0,
                        "NORMAL" : 1,
                        "TEXCOORD_0" : 2,
                        "COLOR_0" : 3
                    },
                    "indices" : 4,
                    "material" : 0
                },
                {
                    "attributes" : {
                        "POSITION" : 5,
                        "NORMAL" : 6,
                        "TEXCOORD_0" : 7,
                        "COLOR_0" : 8
                    },
                    "indices" : 9,
                    "material" : 1
                }
            ]
        }
    ],
    "textures" : [
        {
            "source" : 0
        },
        {
            "source" : 1
        },
        {
            "source" : 2
        },
        {
            "source" : 3
        },
        {
            "source" : 4
        },
        {
            "source" : 5
        }
    ],
    "images" : [
        {
            "mimeType" : "image/png",
            "name" : "NORMAL_MAIN_NORMAL_NECK",
            "uri" : "NORMAL_MAIN_NORMAL_NECK.png"
        },
        {
            "mimeType" : "image/png",
            "name" : "DIFFUSE_AKSEN_NORMAL_NECK",
            "uri" : "DIFFUSE_AKSEN_NORMAL_NECK.png"
        },
        {
            "mimeType" : "image/png",
            "name" : "ROUGHNESS_MAIN_NORMAL_NECK",
            "uri" : "ROUGHNESS_MAIN_NORMAL_NECK.png"
        },
        {
            "mimeType" : "image/png",
            "name" : "NORMAL_MAP_AKSEN_V_NECK",
            "uri" : "NORMAL_MAP_AKSEN_V_NECK.png"
        },
        {
            "mimeType" : "image/png",
            "name" : "DIFFUSE_MAIN_NORMAL_NECK",
            "uri" : "DIFFUSE_MAIN_NORMAL_NECK.png"
        },
        {
            "mimeType" : "image/png",
            "name" : "ROUGHNESS_AKSEN_NORMAL_NECK",
            "uri" : "ROUGHNESS_AKSEN_NORMAL_NECK.png"
        }
    ],
    "accessors" : [
        {
            "bufferView" : 0,
            "componentType" : 5126,
            "count" : 1476,
            "max" : [
                0.8132897615432739,
                0.55263352394104,
                -0.07213974744081497
            ],
            "min" : [
                -0.8083648681640625,
                -0.5290944576263428,
                -4.452712059020996
            ],
            "type" : "VEC3"
        },
        {
            "bufferView" : 1,
            "componentType" : 5126,
            "count" : 1476,
            "type" : "VEC3"
        },
        {
            "bufferView" : 2,
            "componentType" : 5126,
            "count" : 1476,
            "type" : "VEC2"
        },
        {
            "bufferView" : 3,
            "componentType" : 5126,
            "count" : 1476,
            "type" : "VEC4"
        },
        {
            "bufferView" : 4,
            "componentType" : 5123,
            "count" : 7722,
            "type" : "SCALAR"
        },
        {
            "bufferView" : 5,
            "componentType" : 5126,
            "count" : 350,
            "max" : [
                0.8216671943664551,
                0.3885188102722168,
                0.011863470077514648
            ],
            "min" : [
                -0.8152766227722168,
                -0.44756901264190674,
                -4.475893020629883
            ],
            "type" : "VEC3"
        },
        {
            "bufferView" : 6,
            "componentType" : 5126,
            "count" : 350,
            "type" : "VEC3"
        },
        {
            "bufferView" : 7,
            "componentType" : 5126,
            "count" : 350,
            "type" : "VEC2"
        },
        {
            "bufferView" : 8,
            "componentType" : 5126,
            "count" : 350,
            "type" : "VEC4"
        },
        {
            "bufferView" : 9,
            "componentType" : 5123,
            "count" : 1194,
            "type" : "SCALAR"
        }
    ],
    "bufferViews" : [
        {
            "buffer" : 0,
            "byteLength" : 17712,
            "byteOffset" : 0
        },
        {
            "buffer" : 0,
            "byteLength" : 17712,
            "byteOffset" : 17712
        },
        {
            "buffer" : 0,
            "byteLength" : 11808,
            "byteOffset" : 35424
        },
        {
            "buffer" : 0,
            "byteLength" : 23616,
            "byteOffset" : 47232
        },
        {
            "buffer" : 0,
            "byteLength" : 15444,
            "byteOffset" : 70848
        },
        {
            "buffer" : 0,
            "byteLength" : 4200,
            "byteOffset" : 86292
        },
        {
            "buffer" : 0,
            "byteLength" : 4200,
            "byteOffset" : 90492
        },
        {
            "buffer" : 0,
            "byteLength" : 2800,
            "byteOffset" : 94692
        },
        {
            "buffer" : 0,
            "byteLength" : 5600,
            "byteOffset" : 97492
        },
        {
            "buffer" : 0,
            "byteLength" : 2388,
            "byteOffset" : 103092
        }
    ],
    "buffers" : [
        {
            "byteLength" : 105480,
            "uri" : "Basic_Jersey_1.bin"
        }
    ]
}
