{
    "asset" : {
        "generator" : "Khronos glTF Blender I/O v1.2.75",
        "version" : "2.0"
    },
    "scene" : 0,
    "scenes" : [
        {
            "name" : "Scene",
            "nodes" : [
                0
            ]
        }
    ],
    "nodes" : [
        {
            "mesh" : 0,
            "name" : "Normal_Neck",
            "rotation" : [
                0.7071068286895752,
                0,
                0,
                0.7071067094802856
            ]
        }
    ],
    "materials" : [
        {
            "doubleSided" : true,
            "emissiveFactor" : [
                0,
                0,
                0
            ],
            "name" : "Default OBJ.002",
            "pbrMetallicRoughness" : {
                "baseColorTexture" : {
                    "index" : 0,
                    "texCoord" : 0
                },
                "metallicFactor" : 0,
                "roughnessFactor" : 0
            }
        }
    ],
    "meshes" : [
        {
            "name" : "Low_polly_pants_2.002",
            "primitives" : [
                {
                    "attributes" : {
                        "POSITION" : 0,
                        "NORMAL" : 1,
                        "TEXCOORD_0" : 2
                    },
                    "indices" : 3,
                    "material" : 0
                }
            ]
        }
    ],
    "textures" : [
        {
            "source" : 0
        }
    ],
    "images" : [
        {
            "mimeType" : "image/png",
            "name" : "UV_NOMRAL_NECK_NO_LIGHTS",
            "uri" : "UV_NOMRAL_NECK_NO_LIGHTS.png"
        }
    ],
    "accessors" : [
        {
            "bufferView" : 0,
            "componentType" : 5126,
            "count" : 1827,
            "max" : [
                0.8216671943664551,
                0.5360614657402039,
                0.011966228485107422
            ],
            "min" : [
                -0.8192317485809326,
                -0.5290944576263428,
                -4.475893020629883
            ],
            "type" : "VEC3"
        },
        {
            "bufferView" : 1,
            "componentType" : 5126,
            "count" : 1827,
            "type" : "VEC3"
        },
        {
            "bufferView" : 2,
            "componentType" : 5126,
            "count" : 1827,
            "type" : "VEC2"
        },
        {
            "bufferView" : 3,
            "componentType" : 5123,
            "count" : 8922,
            "type" : "SCALAR"
        }
    ],
    "bufferViews" : [
        {
            "buffer" : 0,
            "byteLength" : 21924,
            "byteOffset" : 0
        },
        {
            "buffer" : 0,
            "byteLength" : 21924,
            "byteOffset" : 21924
        },
        {
            "buffer" : 0,
            "byteLength" : 14616,
            "byteOffset" : 43848
        },
        {
            "buffer" : 0,
            "byteLength" : 17844,
            "byteOffset" : 58464
        }
    ],
    "buffers" : [
        {
            "byteLength" : 76308,
            "uri" : "Basic_Jersey_4.bin"
        }
    ]
}
