{
    "asset" : {
        "generator" : "Khronos glTF Blender I/O v1.4.40",
        "version" : "2.0"
    },
    "scene" : 0,
    "scenes" : [
        {
            "name" : "Scene",
            "nodes" : [
                0,
                1
            ]
        }
    ],
    "nodes" : [
        {
            "mesh" : 0,
            "name" : "V_Neck",
            "rotation" : [
                0.7071068286895752,
                0,
                0,
                0.7071067094802856
            ],
            "translation" : [
                0.001589304767549038,
                4.433858871459961,
                0.018254362046718597
            ]
        },
        {
            "mesh" : 1,
            "name" : "Normal_Neck",
            "rotation" : [
                0.7071068286895752,
                0,
                0,
                0.7071067094802856
            ]
        }
    ],
    "materials" : [
        {
            "doubleSided" : true,
            "emissiveFactor" : [
                1,
                1,
                1
            ],
            "emissiveTexture" : {
                "index" : 0,
                "texCoord" : 0
            },
            "name" : "Default OBJ.003",
            "pbrMetallicRoughness" : {}
        },
        {
            "doubleSided" : true,
            "emissiveFactor" : [
                1,
                1,
                1
            ],
            "emissiveTexture" : {
                "index" : 1,
                "texCoord" : 0
            },
            "name" : "Default OBJ.002",
            "pbrMetallicRoughness" : {}
        }
    ],
    "meshes" : [
        {
            "name" : "Low_polly_V_neck_2.001",
            "primitives" : [
                {
                    "attributes" : {
                        "POSITION" : 0,
                        "NORMAL" : 1,
                        "TEXCOORD_0" : 2
                    },
                    "indices" : 3,
                    "material" : 0
                }
            ]
        },
        {
            "name" : "Low_polly_pants_2.002",
            "primitives" : [
                {
                    "attributes" : {
                        "POSITION" : 4,
                        "NORMAL" : 5,
                        "TEXCOORD_0" : 6
                    },
                    "indices" : 7,
                    "material" : 1
                }
            ]
        }
    ],
    "textures" : [
        {
            "sampler" : 0,
            "source" : 0
        },
        {
            "sampler" : 0,
            "source" : 1
        }
    ],
    "images" : [
        {
            "mimeType" : "image/png",
            "name" : "UV_V_Neck_Baked_Test",
            "uri" : "UV_V_Neck_Baked_Test.png"
        },
        {
            "mimeType" : "image/png",
            "name" : "UV_Normal_Baked",
            "uri" : "UV_Normal_Baked.png"
        }
    ],
    "accessors" : [
        {
            "bufferView" : 0,
            "componentType" : 5126,
            "count" : 1827,
            "max" : [
                0.8200778961181641,
                0.5178074836730957,
                2.3245961666107178
            ],
            "min" : [
                -0.8168659210205078,
                -0.5473484396934509,
                -2.1631603240966797
            ],
            "type" : "VEC3"
        },
        {
            "bufferView" : 1,
            "componentType" : 5126,
            "count" : 1827,
            "type" : "VEC3"
        },
        {
            "bufferView" : 2,
            "componentType" : 5126,
            "count" : 1827,
            "type" : "VEC2"
        },
        {
            "bufferView" : 3,
            "componentType" : 5123,
            "count" : 8922,
            "type" : "SCALAR"
        },
        {
            "bufferView" : 4,
            "componentType" : 5126,
            "count" : 1827,
            "max" : [
                0.8216671943664551,
                0.5360611081123352,
                -2.1091599464416504
            ],
            "min" : [
                -0.8192317485809326,
                -0.5290948152542114,
                -6.597019195556641
            ],
            "type" : "VEC3"
        },
        {
            "bufferView" : 5,
            "componentType" : 5126,
            "count" : 1827,
            "type" : "VEC3"
        },
        {
            "bufferView" : 6,
            "componentType" : 5126,
            "count" : 1827,
            "type" : "VEC2"
        },
        {
            "bufferView" : 7,
            "componentType" : 5123,
            "count" : 8922,
            "type" : "SCALAR"
        }
    ],
    "bufferViews" : [
        {
            "buffer" : 0,
            "byteLength" : 21924,
            "byteOffset" : 0
        },
        {
            "buffer" : 0,
            "byteLength" : 21924,
            "byteOffset" : 21924
        },
        {
            "buffer" : 0,
            "byteLength" : 14616,
            "byteOffset" : 43848
        },
        {
            "buffer" : 0,
            "byteLength" : 17844,
            "byteOffset" : 58464
        },
        {
            "buffer" : 0,
            "byteLength" : 21924,
            "byteOffset" : 76308
        },
        {
            "buffer" : 0,
            "byteLength" : 21924,
            "byteOffset" : 98232
        },
        {
            "buffer" : 0,
            "byteLength" : 14616,
            "byteOffset" : 120156
        },
        {
            "buffer" : 0,
            "byteLength" : 17844,
            "byteOffset" : 134772
        }
    ],
    "samplers" : [
        {
            "magFilter" : 9729,
            "minFilter" : 9986
        }
    ],
    "buffers" : [
        {
            "byteLength" : 152616,
            "uri" : "Basic_V_Neck.bin"
        }
    ]
}
