{
    "asset" : {
        "generator" : "Khronos glTF Blender I/O v1.2.75",
        "version" : "2.0"
    },
    "scene" : 0,
    "scenes" : [
        {
            "name" : "Scene",
            "nodes" : [
                0,
                1
            ]
        }
    ],
    "nodes" : [
        {
            "mesh" : 0,
            "name" : "<name>_Default",
            "rotation" : [
                0,
                0.7071067690849304,
                0,
                -0.7071067690849304
            ],
            "scale" : [
                0.016102172434329987,
                0.016102172434329987,
                0.016102172434329987
            ],
            "translation" : [
                -0.06076216697692871,
                -0.003317892551422119,
                0.043021440505981445
            ]
        },
        {
            "mesh" : 1,
            "name" : "<name>_Pattern_1",
            "rotation" : [
                0,
                0.7071067690849304,
                0,
                -0.7071067690849304
            ],
            "scale" : [
                0.016102172434329987,
                0.016102172434329987,
                0.016102172434329987
            ],
            "translation" : [
                -0.06076216697692871,
                -0.003317892551422119,
                0.043021440505981445
            ]
        }
    ],
    "materials" : [
        {
            "doubleSided" : true,
            "emissiveFactor" : [
                0,
                0,
                0
            ],
            "name" : "<name>_Default_Primary",
            "pbrMetallicRoughness" : {
                "baseColorTexture" : {
                    "index" : 0,
                    "texCoord" : 0
                },
                "metallicFactor" : 0,
                "roughnessFactor" : 1
            }
        },
        {
            "doubleSided" : true,
            "name" : "<name>_Default_Secondary",
            "pbrMetallicRoughness" : {}
        },
        {
            "doubleSided" : true,
            "name" : "<name>_Pattern_1_Secondary",
            "pbrMetallicRoughness" : {}
        },
        {
            "doubleSided" : true,
            "name" : "<name>_Pattern_1_Tertiary",
            "pbrMetallicRoughness" : {}
        }
    ],
    "meshes" : [
        {
            "name" : "<name>_Default",
            "primitives" : [
                {
                    "attributes" : {
                        "POSITION" : 0,
                        "NORMAL" : 1,
                        "TEXCOORD_0" : 2
                    },
                    "indices" : 3,
                    "material" : 0
                },
                {
                    "attributes" : {
                        "POSITION" : 4,
                        "NORMAL" : 5,
                        "TEXCOORD_0" : 6
                    },
                    "indices" : 7,
                    "material" : 1
                }
            ]
        },
        {
            "name" : "<name>_Pattern_1",
            "primitives" : [
                {
                    "attributes" : {
                        "POSITION" : 8,
                        "NORMAL" : 9,
                        "TEXCOORD_0" : 10
                    },
                    "indices" : 11,
                    "material" : 2
                },
                {
                    "attributes" : {
                        "POSITION" : 12,
                        "NORMAL" : 13,
                        "TEXCOORD_0" : 14
                    },
                    "indices" : 15,
                    "material" : 3
                }
            ]
        }
    ],
    "textures" : [
        {
            "source" : 0
        }
    ],
    "images" : [
        {
            "bufferView" : 4,
            "mimeType" : "image/png",
            "name" : "jersey-texture.png"
        }
    ],
    "accessors" : [
        {
            "bufferView" : 0,
            "componentType" : 5126,
            "count" : 7605,
            "max" : [
                25.755210876464844,
                143.3650665283203,
                15.388349533081055
            ],
            "min" : [
                -25.694049835205078,
                2.500649929046631,
                -15.388360023498535
            ],
            "type" : "VEC3"
        },
        {
            "bufferView" : 1,
            "componentType" : 5126,
            "count" : 7605,
            "type" : "VEC3"
        },
        {
            "bufferView" : 2,
            "componentType" : 5126,
            "count" : 7605,
            "type" : "VEC2"
        },
        {
            "bufferView" : 3,
            "componentType" : 5123,
            "count" : 43518,
            "type" : "SCALAR"
        },
        {
            "bufferView" : 5,
            "componentType" : 5126,
            "count" : 732,
            "max" : [
                25.81427001953125,
                144.62753295898438,
                8.293069839477539
            ],
            "min" : [
                -25.814260482788086,
                0,
                -13.580909729003906
            ],
            "type" : "VEC3"
        },
        {
            "bufferView" : 6,
            "componentType" : 5126,
            "count" : 732,
            "type" : "VEC3"
        },
        {
            "bufferView" : 7,
            "componentType" : 5126,
            "count" : 732,
            "type" : "VEC2"
        },
        {
            "bufferView" : 8,
            "componentType" : 5123,
            "count" : 2808,
            "type" : "SCALAR"
        },
        {
            "bufferView" : 9,
            "componentType" : 5126,
            "count" : 531,
            "max" : [
                25.032373428344727,
                114.9803237915039,
                2.4847700595855713
            ],
            "min" : [
                -24.943330764770508,
                12.188459396362305,
                -5.082561016082764
            ],
            "type" : "VEC3"
        },
        {
            "bufferView" : 10,
            "componentType" : 5126,
            "count" : 531,
            "type" : "VEC3"
        },
        {
            "bufferView" : 11,
            "componentType" : 5126,
            "count" : 531,
            "type" : "VEC2"
        },
        {
            "bufferView" : 12,
            "componentType" : 5123,
            "count" : 1983,
            "type" : "SCALAR"
        },
        {
            "bufferView" : 13,
            "componentType" : 5126,
            "count" : 563,
            "max" : [
                23.464078903198242,
                115.70587158203125,
                3.3548007011413574
            ],
            "min" : [
                -22.772464752197266,
                11.104263305664062,
                -5.995935916900635
            ],
            "type" : "VEC3"
        },
        {
            "bufferView" : 14,
            "componentType" : 5126,
            "count" : 563,
            "type" : "VEC3"
        },
        {
            "bufferView" : 15,
            "componentType" : 5126,
            "count" : 563,
            "type" : "VEC2"
        },
        {
            "bufferView" : 16,
            "componentType" : 5123,
            "count" : 1824,
            "type" : "SCALAR"
        }
    ],
    "bufferViews" : [
        {
            "buffer" : 0,
            "byteLength" : 91260,
            "byteOffset" : 0
        },
        {
            "buffer" : 0,
            "byteLength" : 91260,
            "byteOffset" : 91260
        },
        {
            "buffer" : 0,
            "byteLength" : 60840,
            "byteOffset" : 182520
        },
        {
            "buffer" : 0,
            "byteLength" : 87036,
            "byteOffset" : 243360
        },
        {
            "buffer" : 0,
            "byteLength" : 340323,
            "byteOffset" : 330396
        },
        {
            "buffer" : 0,
            "byteLength" : 8784,
            "byteOffset" : 670720
        },
        {
            "buffer" : 0,
            "byteLength" : 8784,
            "byteOffset" : 679504
        },
        {
            "buffer" : 0,
            "byteLength" : 5856,
            "byteOffset" : 688288
        },
        {
            "buffer" : 0,
            "byteLength" : 5616,
            "byteOffset" : 694144
        },
        {
            "buffer" : 0,
            "byteLength" : 6372,
            "byteOffset" : 699760
        },
        {
            "buffer" : 0,
            "byteLength" : 6372,
            "byteOffset" : 706132
        },
        {
            "buffer" : 0,
            "byteLength" : 4248,
            "byteOffset" : 712504
        },
        {
            "buffer" : 0,
            "byteLength" : 3966,
            "byteOffset" : 716752
        },
        {
            "buffer" : 0,
            "byteLength" : 6756,
            "byteOffset" : 720720
        },
        {
            "buffer" : 0,
            "byteLength" : 6756,
            "byteOffset" : 727476
        },
        {
            "buffer" : 0,
            "byteLength" : 4504,
            "byteOffset" : 734232
        },
        {
            "buffer" : 0,
            "byteLength" : 3648,
            "byteOffset" : 738736
        }
    ],
    "buffers" : [
        {
            "byteLength" : 742384,
            "uri" : "data:application/octet-stream;base64,"
        }
    ]
}
