{
    "asset" : {
        "generator" : "Khronos glTF Blender I/O v1.2.75",
        "version" : "2.0"
    },
    "scene" : 0,
    "scenes" : [
        {
            "name" : "Scene",
            "nodes" : [
                0
            ]
        }
    ],
    "nodes" : [
        {
            "mesh" : 0,
            "name" : "Normal_Neck",
            "rotation" : [
                0.5,
                -0.4999999701976776,
                0.5000000596046448,
                0.4999999403953552
            ]
        }
    ],
    "materials" : [
        {
            "doubleSided" : true,
            "emissiveFactor" : [
                0,
                0,
                0
            ],
            "name" : "Normal_main_Baju_depan",
            "normalTexture" : {
                "index" : 0,
                "scale" : 0.800000011920929,
                "texCoord" : 0
            },
            "pbrMetallicRoughness" : {
                "baseColorTexture" : {
                    "index" : 1,
                    "texCoord" : 0
                },
                "metallicFactor" : 0,
                "roughnessFactor" : 1
            }
        },
        {
            "doubleSided" : true,
            "emissiveFactor" : [
                0,
                0,
                0
            ],
            "name" : "Normal_main_Baju_belakang",
            "normalTexture" : {
                "index" : 2,
                "scale" : 0.800000011920929,
                "texCoord" : 0
            },
            "pbrMetallicRoughness" : {
                "baseColorTexture" : {
                    "index" : 3,
                    "texCoord" : 0
                },
                "metallicFactor" : 0,
                "roughnessFactor" : 1
            }
        },
        {
            "doubleSided" : true,
            "emissiveFactor" : [
                0,
                0,
                0
            ],
            "name" : "Normal_Aksen",
            "pbrMetallicRoughness" : {
                "baseColorTexture" : {
                    "index" : 4,
                    "texCoord" : 0
                },
                "metallicFactor" : 0,
                "roughnessFactor" : 1
            }
        },
        {
            "doubleSided" : true,
            "emissiveFactor" : [
                0,
                0,
                0
            ],
            "name" : "Normal_main_Celana_depan",
            "normalTexture" : {
                "index" : 5,
                "scale" : 0.800000011920929,
                "texCoord" : 0
            },
            "pbrMetallicRoughness" : {
                "baseColorTexture" : {
                    "index" : 6,
                    "texCoord" : 0
                },
                "metallicFactor" : 0,
                "roughnessFactor" : 1
            }
        },
        {
            "doubleSided" : true,
            "emissiveFactor" : [
                0,
                0,
                0
            ],
            "name" : "Normal_main_Celana_belakang",
            "normalTexture" : {
                "index" : 7,
                "scale" : 0.800000011920929,
                "texCoord" : 0
            },
            "pbrMetallicRoughness" : {
                "baseColorTexture" : {
                    "index" : 8,
                    "texCoord" : 0
                },
                "metallicFactor" : 0,
                "roughnessFactor" : 1
            }
        }
    ],
    "meshes" : [
        {
            "name" : "Low_polly_V_neck_2.002",
            "primitives" : [
                {
                    "attributes" : {
                        "POSITION" : 0,
                        "NORMAL" : 1,
                        "TEXCOORD_0" : 2,
                        "COLOR_0" : 3
                    },
                    "indices" : 4,
                    "material" : 0
                },
                {
                    "attributes" : {
                        "POSITION" : 5,
                        "NORMAL" : 6,
                        "TEXCOORD_0" : 7,
                        "COLOR_0" : 8
                    },
                    "indices" : 9,
                    "material" : 1
                },
                {
                    "attributes" : {
                        "POSITION" : 10,
                        "NORMAL" : 11,
                        "TEXCOORD_0" : 12,
                        "COLOR_0" : 13
                    },
                    "indices" : 14,
                    "material" : 2
                },
                {
                    "attributes" : {
                        "POSITION" : 15,
                        "NORMAL" : 16,
                        "TEXCOORD_0" : 17,
                        "COLOR_0" : 18
                    },
                    "indices" : 19,
                    "material" : 3
                },
                {
                    "attributes" : {
                        "POSITION" : 20,
                        "NORMAL" : 21,
                        "TEXCOORD_0" : 22,
                        "COLOR_0" : 23
                    },
                    "indices" : 24,
                    "material" : 4
                }
            ]
        }
    ],
    "textures" : [
        {
            "source" : 0
        },
        {
            "source" : 1
        },
        {
            "source" : 2
        },
        {
            "source" : 1
        },
        {
            "source" : 3
        },
        {
            "source" : 4
        },
        {
            "source" : 1
        },
        {
            "source" : 5
        },
        {
            "source" : 1
        }
    ],
    "images" : [
        {
            "mimeType" : "image/png",
            "name" : "NORMAL_ BAJU_DEPAN",
            "uri" : "NORMAL_%20BAJU_DEPAN.png"
        },
        {
            "mimeType" : "image/jpeg",
            "name" : "Warna_ijo",
            "uri" : "Warna_ijo.jpg"
        },
        {
            "mimeType" : "image/png",
            "name" : "NORMAL_BAJU_BELAKANG",
            "uri" : "NORMAL_BAJU_BELAKANG.png"
        },
        {
            "mimeType" : "image/jpeg",
            "name" : "Warna_abu",
            "uri" : "Warna_abu.jpg"
        },
        {
            "mimeType" : "image/png",
            "name" : "NORMAL_CELANA_DEPAN",
            "uri" : "NORMAL_CELANA_DEPAN.png"
        },
        {
            "mimeType" : "image/png",
            "name" : "NORMAL_CELANA_BELAKANG",
            "uri" : "NORMAL_CELANA_BELAKANG.png"
        }
    ],
    "accessors" : [
        {
            "bufferView" : 0,
            "componentType" : 5126,
            "count" : 273,
            "max" : [
                0.6673828959465027,
                0.55263352394104,
                -2.293095588684082
            ],
            "min" : [
                -0.6605212688446045,
                -0.16061225533485413,
                -4.449949741363525
            ],
            "type" : "VEC3"
        },
        {
            "bufferView" : 1,
            "componentType" : 5126,
            "count" : 273,
            "type" : "VEC3"
        },
        {
            "bufferView" : 2,
            "componentType" : 5126,
            "count" : 273,
            "type" : "VEC2"
        },
        {
            "bufferView" : 3,
            "componentType" : 5126,
            "count" : 273,
            "type" : "VEC4"
        },
        {
            "bufferView" : 4,
            "componentType" : 5123,
            "count" : 1380,
            "type" : "SCALAR"
        },
        {
            "bufferView" : 5,
            "componentType" : 5126,
            "count" : 268,
            "max" : [
                0.6754096150398254,
                0.04263375699520111,
                -2.299177646636963
            ],
            "min" : [
                -0.6804544925689697,
                -0.5290944576263428,
                -4.452712059020996
            ],
            "type" : "VEC3"
        },
        {
            "bufferView" : 6,
            "componentType" : 5126,
            "count" : 268,
            "type" : "VEC3"
        },
        {
            "bufferView" : 7,
            "componentType" : 5126,
            "count" : 268,
            "type" : "VEC2"
        },
        {
            "bufferView" : 8,
            "componentType" : 5126,
            "count" : 268,
            "type" : "VEC4"
        },
        {
            "bufferView" : 9,
            "componentType" : 5123,
            "count" : 1374,
            "type" : "SCALAR"
        },
        {
            "bufferView" : 10,
            "componentType" : 5126,
            "count" : 350,
            "max" : [
                0.8216671943664551,
                0.3885188102722168,
                0.011863470077514648
            ],
            "min" : [
                -0.8152766227722168,
                -0.44756901264190674,
                -4.475893020629883
            ],
            "type" : "VEC3"
        },
        {
            "bufferView" : 11,
            "componentType" : 5126,
            "count" : 350,
            "type" : "VEC3"
        },
        {
            "bufferView" : 12,
            "componentType" : 5126,
            "count" : 350,
            "type" : "VEC2"
        },
        {
            "bufferView" : 13,
            "componentType" : 5126,
            "count" : 350,
            "type" : "VEC4"
        },
        {
            "bufferView" : 14,
            "componentType" : 5123,
            "count" : 1194,
            "type" : "SCALAR"
        },
        {
            "bufferView" : 15,
            "componentType" : 5126,
            "count" : 473,
            "max" : [
                0.8132897615432739,
                0.5324884653091431,
                -0.07213974744081497
            ],
            "min" : [
                -0.8083648681640625,
                -0.07412386685609818,
                -2.5640740394592285
            ],
            "type" : "VEC3"
        },
        {
            "bufferView" : 16,
            "componentType" : 5126,
            "count" : 473,
            "type" : "VEC3"
        },
        {
            "bufferView" : 17,
            "componentType" : 5126,
            "count" : 473,
            "type" : "VEC2"
        },
        {
            "bufferView" : 18,
            "componentType" : 5126,
            "count" : 473,
            "type" : "VEC4"
        },
        {
            "bufferView" : 19,
            "componentType" : 5123,
            "count" : 2514,
            "type" : "SCALAR"
        },
        {
            "bufferView" : 20,
            "componentType" : 5126,
            "count" : 462,
            "max" : [
                0.8132897615432739,
                0.048355020582675934,
                -0.10275888442993164
            ],
            "min" : [
                -0.7865287065505981,
                -0.5023791193962097,
                -2.5777907371520996
            ],
            "type" : "VEC3"
        },
        {
            "bufferView" : 21,
            "componentType" : 5126,
            "count" : 462,
            "type" : "VEC3"
        },
        {
            "bufferView" : 22,
            "componentType" : 5126,
            "count" : 462,
            "type" : "VEC2"
        },
        {
            "bufferView" : 23,
            "componentType" : 5126,
            "count" : 462,
            "type" : "VEC4"
        },
        {
            "bufferView" : 24,
            "componentType" : 5123,
            "count" : 2454,
            "type" : "SCALAR"
        }
    ],
    "bufferViews" : [
        {
            "buffer" : 0,
            "byteLength" : 3276,
            "byteOffset" : 0
        },
        {
            "buffer" : 0,
            "byteLength" : 3276,
            "byteOffset" : 3276
        },
        {
            "buffer" : 0,
            "byteLength" : 2184,
            "byteOffset" : 6552
        },
        {
            "buffer" : 0,
            "byteLength" : 4368,
            "byteOffset" : 8736
        },
        {
            "buffer" : 0,
            "byteLength" : 2760,
            "byteOffset" : 13104
        },
        {
            "buffer" : 0,
            "byteLength" : 3216,
            "byteOffset" : 15864
        },
        {
            "buffer" : 0,
            "byteLength" : 3216,
            "byteOffset" : 19080
        },
        {
            "buffer" : 0,
            "byteLength" : 2144,
            "byteOffset" : 22296
        },
        {
            "buffer" : 0,
            "byteLength" : 4288,
            "byteOffset" : 24440
        },
        {
            "buffer" : 0,
            "byteLength" : 2748,
            "byteOffset" : 28728
        },
        {
            "buffer" : 0,
            "byteLength" : 4200,
            "byteOffset" : 31476
        },
        {
            "buffer" : 0,
            "byteLength" : 4200,
            "byteOffset" : 35676
        },
        {
            "buffer" : 0,
            "byteLength" : 2800,
            "byteOffset" : 39876
        },
        {
            "buffer" : 0,
            "byteLength" : 5600,
            "byteOffset" : 42676
        },
        {
            "buffer" : 0,
            "byteLength" : 2388,
            "byteOffset" : 48276
        },
        {
            "buffer" : 0,
            "byteLength" : 5676,
            "byteOffset" : 50664
        },
        {
            "buffer" : 0,
            "byteLength" : 5676,
            "byteOffset" : 56340
        },
        {
            "buffer" : 0,
            "byteLength" : 3784,
            "byteOffset" : 62016
        },
        {
            "buffer" : 0,
            "byteLength" : 7568,
            "byteOffset" : 65800
        },
        {
            "buffer" : 0,
            "byteLength" : 5028,
            "byteOffset" : 73368
        },
        {
            "buffer" : 0,
            "byteLength" : 5544,
            "byteOffset" : 78396
        },
        {
            "buffer" : 0,
            "byteLength" : 5544,
            "byteOffset" : 83940
        },
        {
            "buffer" : 0,
            "byteLength" : 3696,
            "byteOffset" : 89484
        },
        {
            "buffer" : 0,
            "byteLength" : 7392,
            "byteOffset" : 93180
        },
        {
            "buffer" : 0,
            "byteLength" : 4908,
            "byteOffset" : 100572
        }
    ],
    "buffers" : [
        {
            "byteLength" : 105480,
            "uri" : "Normal_Neck.bin"
        }
    ]
}
